<?xml version="1.0" standalone="no"?>
<!DOCTYPE svg PUBLIC "-//W3C//DTD SVG 20010904//EN"
 "http://www.w3.org/TR/2001/REC-SVG-20010904/DTD/svg10.dtd">
<svg version="1.0" xmlns="http://www.w3.org/2000/svg"
 width="300.000000pt" height="270.000000pt" viewBox="0 0 300.000000 270.000000"
 preserveAspectRatio="xMidYMid meet">

<g transform="translate(0.000000,270.000000) scale(0.100000,-0.100000)"
fill="#000000" stroke="none">
<path d="M75 2690 c-4 -6 -9 -9 -13 -7 -4 2 -17 -7 -29 -20 -12 -13 -20 -23
-17 -23 2 0 0 -9 -6 -20 -6 -11 -7 -26 -3 -33 4 -6 9 -21 10 -32 2 -20 8 -53
19 -117 3 -18 6 -44 8 -58 1 -14 5 -32 9 -40 3 -8 5 -22 5 -30 1 -24 10 -91
27 -182 3 -16 7 -41 10 -58 3 -16 7 -43 10 -60 3 -16 7 -43 10 -60 3 -16 7
-43 10 -60 3 -16 7 -43 10 -60 3 -16 7 -43 10 -60 3 -16 7 -43 10 -60 3 -16 7
-45 11 -62 3 -18 6 -45 8 -60 2 -16 5 -31 6 -35 2 -5 4 -19 6 -33 3 -26 11
-77 19 -122 3 -16 7 -41 10 -58 3 -16 7 -43 10 -60 3 -17 7 -44 10 -60 3 -16
7 -43 10 -60 3 -16 7 -43 10 -60 3 -16 7 -43 10 -60 3 -16 7 -42 10 -57 2 -16
7 -44 10 -63 2 -19 7 -48 10 -65 4 -16 8 -42 9 -57 2 -16 5 -30 6 -33 1 -3 4
-17 5 -32 3 -27 10 -71 20 -125 3 -16 7 -41 10 -58 3 -16 7 -43 10 -60 3 -16
7 -43 10 -60 3 -16 7 -43 10 -60 -22 130 42 -250 20 -120 3 -16 7 -43 10 -60
3 -16 7 -43 8 -59 5 -44 55 -111 87 -117 3 0 12 -4 20 -8 8 -3 464 -5 1012 -4
l996 3 26 24 c14 13 28 35 31 50 9 44 282 1725 283 1746 1 11 4 34 7 50 7 44
14 85 20 130 5 41 11 78 20 128 5 27 10 55 20 120 3 17 7 43 9 57 1 14 4 27 6
30 1 3 4 16 6 30 3 30 13 94 19 133 3 15 7 41 8 57 2 17 7 33 10 36 12 12 -24
65 -56 84 -31 20 -61 20 -1444 20 -946 0 -1414 -3 -1418 -10z m1886 -895 c3
-2 -5 -62 -17 -132 -12 -71 -45 -269 -75 -440 l-52 -313 -318 0 c-280 0 -318
2 -323 16 -3 9 -4 20 0 25 3 5 2 15 -3 22 -4 6 -9 21 -10 32 -1 11 -4 32 -7
48 -3 15 -8 38 -11 52 -9 42 -16 79 -20 105 -2 14 -6 37 -9 53 -3 15 -8 39
-12 55 -3 15 -7 38 -10 52 -3 14 -7 36 -9 50 -5 30 -16 90 -30 155 -11 55 -16
81 -20 105 -2 14 -6 37 -8 51 -2 14 -7 31 -11 37 -4 7 -4 17 -1 22 6 10 937
15 946 5z"/>
</g>
</svg>
