<?xml version="1.0" standalone="no"?>
<!DOCTYPE svg PUBLIC "-//W3C//DTD SVG 20010904//EN"
 "http://www.w3.org/TR/2001/REC-SVG-20010904/DTD/svg10.dtd">
<svg version="1.0" xmlns="http://www.w3.org/2000/svg"
 width="183.000000pt" height="160.000000pt" viewBox="0 0 183.000000 160.000000"
 preserveAspectRatio="xMidYMid meet">

<g transform="translate(0.000000,160.000000) scale(0.100000,-0.100000)"
fill="#000000" stroke="none">
<path d="M733 1496 c-184 -35 -333 -110 -463 -232 -324 -306 -295 -768 67
-1040 121 -91 301 -167 343 -144 17 9 20 21 20 88 l0 78 -65 -4 c-124 -8 -198
26 -241 109 -15 31 -41 62 -69 81 -47 33 -54 45 -31 54 35 13 98 -18 156 -76
62 -64 92 -80 144 -80 65 0 97 12 109 39 6 14 19 38 29 52 l18 26 -52 7 c-82
11 -200 61 -242 103 -20 20 -48 62 -63 92 -23 48 -27 69 -28 146 0 95 15 140
64 192 18 19 19 26 10 53 -12 34 -8 99 10 144 11 27 14 28 54 22 23 -4 78 -22
122 -41 74 -31 84 -33 130 -24 66 13 251 12 325 -1 55 -10 61 -9 117 19 33 17
83 36 113 42 48 10 55 9 66 -6 18 -24 28 -98 20 -147 -6 -34 -3 -46 19 -74 42
-56 58 -115 53 -203 -10 -175 -118 -279 -325 -313 l-62 -11 22 -31 c20 -28 23
-47 27 -179 6 -189 5 -188 143 -135 246 95 426 279 493 503 24 84 25 259 0
340 -42 141 -150 288 -286 388 -78 58 -212 122 -310 147 -108 28 -330 36 -437
16z"/>
</g>
</svg>
