<?xml version="1.0" standalone="no"?>
<!DOCTYPE svg PUBLIC "-//W3C//DTD SVG 20010904//EN"
 "http://www.w3.org/TR/2001/REC-SVG-20010904/DTD/svg10.dtd">
<svg version="1.0" xmlns="http://www.w3.org/2000/svg"
 width="474.000000pt" height="471.000000pt" viewBox="0 0 474.000000 471.000000"
 preserveAspectRatio="xMidYMid meet">

<g transform="translate(0.000000,471.000000) scale(0.100000,-0.100000)"
fill="#000000" stroke="none">
<path d="M503 4476 c-103 -33 -194 -114 -241 -214 l-27 -57 0 -1850 0 -1850
27 -58 c35 -74 121 -160 195 -195 l58 -27 1855 0 1855 0 55 26 c105 50 177
133 214 244 15 47 16 203 14 1881 l-3 1829 -32 66 c-39 80 -111 150 -191 187
l-57 27 -1840 2 c-1502 1 -1848 -1 -1882 -11z m767 -456 c280 -44 457 -337
362 -602 -80 -224 -318 -352 -547 -293 -241 63 -391 312 -330 548 53 204 219
340 435 356 8 0 44 -4 80 -9z m2147 -1075 c342 -55 538 -266 614 -660 28 -143
39 -418 38 -990 0 -536 -1 -551 -51 -588 -25 -18 -43 -20 -300 -19 -150 0
-283 1 -296 1 -13 1 -37 14 -53 30 l-29 29 0 584 c0 611 -5 695 -46 798 -40
101 -85 149 -180 192 -38 17 -68 22 -139 22 -78 1 -98 -3 -150 -27 -103 -48
-163 -122 -212 -262 l-27 -80 -6 -610 c-5 -645 -5 -641 -52 -666 -32 -17 -575
-18 -605 -1 -55 31 -53 -16 -53 1117 l0 1047 28 28 c39 38 72 42 362 38 313
-4 311 -3 320 -170 l5 -98 42 54 c149 193 462 284 790 231z m-1919 -33 c12 -7
30 -25 40 -39 16 -25 17 -95 20 -1046 2 -687 -1 -1031 -8 -1057 -7 -25 -22
-47 -42 -62 -32 -22 -37 -22 -310 -22 -264 0 -280 1 -306 21 -54 40 -52 14
-50 1118 3 1021 3 1024 24 1052 36 49 65 53 349 50 190 -1 266 -5 283 -15z"/>
</g>
</svg>
